<?xml version="1.0" standalone="no"?>
<!DOCTYPE svg PUBLIC "-//W3C//DTD SVG 20010904//EN"
 "http://www.w3.org/TR/2001/REC-SVG-20010904/DTD/svg10.dtd">
<svg version="1.0" xmlns="http://www.w3.org/2000/svg"
 width="1024.000000pt" height="36.000000pt" viewBox="0 0 1024.000000 36.000000"
 preserveAspectRatio="xMidYMid meet">

<g transform="translate(0.000000,36.000000) scale(0.100000,-0.100000)"
fill="#000000" stroke="none">
<path d="M5048 250 c-10 -6 -14 -18 -11 -30 6 -23 18 -26 27 -7 5 10 7 10 12
0 9 -19 21 -16 27 7 3 13 -1 24 -13 30 -22 12 -21 12 -42 0z"/>
<path d="M5054 155 c-4 -9 1 -22 12 -31 17 -14 17 -15 2 -10 -10 3 -18 1 -18
-4 0 -17 18 -20 31 -4 11 13 10 18 -5 26 -14 8 -15 12 -6 18 9 5 9 9 1 14 -6
4 -14 0 -17 -9z"/>
</g>
</svg>
